<mxfile host="app.diagrams.net" modified="2021-12-16T06:46:54.323Z" agent="5.0 (Windows NT 10.0; Win64; x64) AppleWebKit/537.36 (KHTML, like Gecko) Chrome/96.0.4664.110 Safari/537.36" etag="dwSC6vyg1wz3v15ZqpMc" version="15.9.6" type="github">
  <diagram id="C5RBs43oDa-KdzZeNtuy" name="Page-1">
    <mxGraphModel dx="1697" dy="1795" grid="1" gridSize="10" guides="1" tooltips="1" connect="1" arrows="1" fold="1" page="1" pageScale="1" pageWidth="827" pageHeight="1169" math="0" shadow="0">
      <root>
        <mxCell id="WIyWlLk6GJQsqaUBKTNV-0" />
        <mxCell id="WIyWlLk6GJQsqaUBKTNV-1" parent="WIyWlLk6GJQsqaUBKTNV-0" />
        <mxCell id="VRP3SGInXy7LyQzZKAjs-8" style="edgeStyle=orthogonalEdgeStyle;rounded=0;orthogonalLoop=1;jettySize=auto;html=1;exitX=0;exitY=0.75;exitDx=0;exitDy=0;entryX=1;entryY=1;entryDx=0;entryDy=0;sketch=1;strokeWidth=1;shadow=1;fillColor=default;shape=flexArrow;" edge="1" parent="WIyWlLk6GJQsqaUBKTNV-1" source="VRP3SGInXy7LyQzZKAjs-16" target="WIyWlLk6GJQsqaUBKTNV-10">
          <mxGeometry relative="1" as="geometry">
            <mxPoint x="380" y="200" as="sourcePoint" />
          </mxGeometry>
        </mxCell>
        <mxCell id="VRP3SGInXy7LyQzZKAjs-10" style="edgeStyle=orthogonalEdgeStyle;rounded=0;orthogonalLoop=1;jettySize=auto;html=1;exitX=0.75;exitY=1;exitDx=0;exitDy=0;entryX=1;entryY=0;entryDx=0;entryDy=0;sketch=1;strokeWidth=1;shadow=1;fillColor=default;shape=flexArrow;" edge="1" parent="WIyWlLk6GJQsqaUBKTNV-1" source="VRP3SGInXy7LyQzZKAjs-16" target="VRP3SGInXy7LyQzZKAjs-5">
          <mxGeometry relative="1" as="geometry">
            <mxPoint x="485" y="220" as="sourcePoint" />
          </mxGeometry>
        </mxCell>
        <mxCell id="VRP3SGInXy7LyQzZKAjs-12" style="edgeStyle=orthogonalEdgeStyle;rounded=0;orthogonalLoop=1;jettySize=auto;html=1;exitX=1;exitY=0.25;exitDx=0;exitDy=0;entryX=0;entryY=0;entryDx=0;entryDy=0;sketch=1;strokeWidth=1;shadow=1;fillColor=default;shape=flexArrow;" edge="1" parent="WIyWlLk6GJQsqaUBKTNV-1" source="VRP3SGInXy7LyQzZKAjs-16" target="WIyWlLk6GJQsqaUBKTNV-6">
          <mxGeometry relative="1" as="geometry">
            <mxPoint x="520" y="160" as="sourcePoint" />
          </mxGeometry>
        </mxCell>
        <mxCell id="VRP3SGInXy7LyQzZKAjs-2" value="Yes" style="edgeStyle=orthogonalEdgeStyle;rounded=0;orthogonalLoop=1;jettySize=auto;html=1;exitX=1;exitY=0.5;exitDx=0;exitDy=0;entryX=0;entryY=0.5;entryDx=0;entryDy=0;sketch=1;strokeWidth=1;shadow=1;fillColor=default;shape=flexArrow;" edge="1" parent="WIyWlLk6GJQsqaUBKTNV-1" source="WIyWlLk6GJQsqaUBKTNV-6" target="WIyWlLk6GJQsqaUBKTNV-7">
          <mxGeometry relative="1" as="geometry" />
        </mxCell>
        <mxCell id="VRP3SGInXy7LyQzZKAjs-13" value="No" style="edgeStyle=orthogonalEdgeStyle;rounded=0;orthogonalLoop=1;jettySize=auto;html=1;exitX=0;exitY=1;exitDx=0;exitDy=0;entryX=1.038;entryY=0.642;entryDx=0;entryDy=0;entryPerimeter=0;sketch=1;strokeWidth=1;shadow=1;fillColor=default;shape=flexArrow;" edge="1" parent="WIyWlLk6GJQsqaUBKTNV-1" source="WIyWlLk6GJQsqaUBKTNV-6" target="VRP3SGInXy7LyQzZKAjs-16">
          <mxGeometry relative="1" as="geometry">
            <mxPoint x="520" y="200" as="targetPoint" />
          </mxGeometry>
        </mxCell>
        <mxCell id="WIyWlLk6GJQsqaUBKTNV-6" value="User enters &#39;generate&#39; or &#39;gen&#39;" style="rhombus;whiteSpace=wrap;html=1;shadow=0;fontFamily=Helvetica;fontSize=12;align=center;strokeWidth=2;spacing=6;spacingTop=-4;fillColor=#dae8fc;strokeColor=#6c8ebf;sketch=1;fillStyle=solid;" parent="WIyWlLk6GJQsqaUBKTNV-1" vertex="1">
          <mxGeometry x="580" y="120" width="120" height="120" as="geometry" />
        </mxCell>
        <mxCell id="WIyWlLk6GJQsqaUBKTNV-7" value="Go to Generate Screen" style="rounded=1;whiteSpace=wrap;html=1;fontSize=12;glass=0;strokeWidth=2;shadow=0;fillColor=#f8cecc;strokeColor=#b85450;spacing=6;spacingTop=-4;sketch=1;fillStyle=solid;" parent="WIyWlLk6GJQsqaUBKTNV-1" vertex="1">
          <mxGeometry x="780" y="150" width="120" height="60" as="geometry" />
        </mxCell>
        <mxCell id="VRP3SGInXy7LyQzZKAjs-7" value="Yes" style="edgeStyle=orthogonalEdgeStyle;rounded=0;orthogonalLoop=1;jettySize=auto;html=1;exitX=0;exitY=0.5;exitDx=0;exitDy=0;entryX=1;entryY=0.5;entryDx=0;entryDy=0;sketch=1;strokeWidth=1;shadow=1;fillColor=default;shape=flexArrow;" edge="1" parent="WIyWlLk6GJQsqaUBKTNV-1" source="WIyWlLk6GJQsqaUBKTNV-10" target="WIyWlLk6GJQsqaUBKTNV-12">
          <mxGeometry relative="1" as="geometry" />
        </mxCell>
        <mxCell id="VRP3SGInXy7LyQzZKAjs-9" value="No" style="edgeStyle=orthogonalEdgeStyle;rounded=0;orthogonalLoop=1;jettySize=auto;html=1;exitX=1;exitY=0;exitDx=0;exitDy=0;entryX=0;entryY=0.25;entryDx=0;entryDy=0;sketch=1;strokeWidth=1;jumpStyle=none;shadow=1;strokeColor=default;shape=flexArrow;fillColor=default;" edge="1" parent="WIyWlLk6GJQsqaUBKTNV-1" source="WIyWlLk6GJQsqaUBKTNV-10" target="VRP3SGInXy7LyQzZKAjs-16">
          <mxGeometry relative="1" as="geometry">
            <mxPoint x="380" y="160" as="targetPoint" />
          </mxGeometry>
        </mxCell>
        <mxCell id="WIyWlLk6GJQsqaUBKTNV-10" value="User enters &#39;print&#39;" style="rhombus;whiteSpace=wrap;html=1;shadow=0;fontFamily=Helvetica;fontSize=12;align=center;strokeWidth=2;spacing=6;spacingTop=-4;fillColor=#dae8fc;strokeColor=#6c8ebf;sketch=1;fillStyle=solid;" parent="WIyWlLk6GJQsqaUBKTNV-1" vertex="1">
          <mxGeometry x="200" y="120" width="120" height="120" as="geometry" />
        </mxCell>
        <mxCell id="WIyWlLk6GJQsqaUBKTNV-12" value="Go to Print Screen" style="rounded=1;whiteSpace=wrap;html=1;fontSize=12;glass=0;strokeWidth=2;shadow=0;fillColor=#f8cecc;strokeColor=#b85450;spacing=6;spacingTop=-4;sketch=1;fillStyle=solid;" parent="WIyWlLk6GJQsqaUBKTNV-1" vertex="1">
          <mxGeometry y="150" width="120" height="60" as="geometry" />
        </mxCell>
        <mxCell id="VRP3SGInXy7LyQzZKAjs-11" value="No" style="edgeStyle=orthogonalEdgeStyle;rounded=0;orthogonalLoop=1;jettySize=auto;html=1;exitX=0;exitY=0;exitDx=0;exitDy=0;entryX=0.25;entryY=1;entryDx=0;entryDy=0;sketch=1;strokeWidth=1;shadow=1;fillColor=default;shape=flexArrow;" edge="1" parent="WIyWlLk6GJQsqaUBKTNV-1" source="VRP3SGInXy7LyQzZKAjs-5" target="VRP3SGInXy7LyQzZKAjs-16">
          <mxGeometry relative="1" as="geometry">
            <mxPoint x="415" y="220" as="targetPoint" />
          </mxGeometry>
        </mxCell>
        <mxCell id="VRP3SGInXy7LyQzZKAjs-14" value="Yes" style="edgeStyle=orthogonalEdgeStyle;rounded=0;orthogonalLoop=1;jettySize=auto;html=1;exitX=0.5;exitY=1;exitDx=0;exitDy=0;entryX=0.5;entryY=0;entryDx=0;entryDy=0;sketch=1;strokeWidth=1;shadow=1;fillColor=default;shape=flexArrow;" edge="1" parent="WIyWlLk6GJQsqaUBKTNV-1" source="VRP3SGInXy7LyQzZKAjs-5" target="VRP3SGInXy7LyQzZKAjs-6">
          <mxGeometry relative="1" as="geometry" />
        </mxCell>
        <mxCell id="VRP3SGInXy7LyQzZKAjs-5" value="User enters &lt;br&gt;&#39;modify&#39; or &#39;mod&#39;" style="rhombus;whiteSpace=wrap;html=1;shadow=0;fontFamily=Helvetica;fontSize=12;align=center;strokeWidth=2;spacing=6;spacingTop=-4;fillColor=#dae8fc;strokeColor=#6c8ebf;sketch=1;fillStyle=solid;" vertex="1" parent="WIyWlLk6GJQsqaUBKTNV-1">
          <mxGeometry x="390" y="280" width="120" height="120" as="geometry" />
        </mxCell>
        <mxCell id="VRP3SGInXy7LyQzZKAjs-6" value="Go to Settings&amp;nbsp;Screen" style="rounded=1;whiteSpace=wrap;html=1;fontSize=12;glass=0;strokeWidth=2;shadow=0;fillColor=#f8cecc;strokeColor=#b85450;spacing=6;spacingTop=-4;sketch=1;fillStyle=solid;" vertex="1" parent="WIyWlLk6GJQsqaUBKTNV-1">
          <mxGeometry x="390" y="480" width="120" height="60" as="geometry" />
        </mxCell>
        <mxCell id="VRP3SGInXy7LyQzZKAjs-17" style="edgeStyle=orthogonalEdgeStyle;rounded=0;orthogonalLoop=1;jettySize=auto;html=1;exitX=0.5;exitY=1;exitDx=0;exitDy=0;entryX=0.5;entryY=0;entryDx=0;entryDy=0;sketch=1;strokeWidth=1;shadow=1;fillColor=default;shape=flexArrow;" edge="1" parent="WIyWlLk6GJQsqaUBKTNV-1" source="VRP3SGInXy7LyQzZKAjs-15" target="VRP3SGInXy7LyQzZKAjs-16">
          <mxGeometry relative="1" as="geometry" />
        </mxCell>
        <mxCell id="VRP3SGInXy7LyQzZKAjs-15" value="User starts program and must enter an action at the prompt." style="rounded=1;whiteSpace=wrap;html=1;fontSize=12;glass=0;strokeWidth=2;shadow=0;fillColor=#d5e8d4;strokeColor=#82b366;spacing=6;spacingTop=-4;sketch=1;fillStyle=solid;" vertex="1" parent="WIyWlLk6GJQsqaUBKTNV-1">
          <mxGeometry x="380" width="140" height="80" as="geometry" />
        </mxCell>
        <mxCell id="VRP3SGInXy7LyQzZKAjs-16" value="User is presented with instructions &lt;br&gt;and must enter command." style="rounded=0;whiteSpace=wrap;html=1;fillColor=#fff2cc;strokeColor=#d6b656;shadow=0;strokeWidth=2;spacing=6;spacingTop=-4;sketch=1;fillStyle=solid;" vertex="1" parent="WIyWlLk6GJQsqaUBKTNV-1">
          <mxGeometry x="390" y="150" width="120" height="60" as="geometry" />
        </mxCell>
      </root>
    </mxGraphModel>
  </diagram>
</mxfile>
